<?xml version="1.0" encoding="UTF-8" standalone="no"?>
<!-- Generator: Adobe Illustrator 19.0.0, SVG Export Plug-In . SVG Version: 6.00 Build 0)  -->

<svg
   xmlns:dc="http://purl.org/dc/elements/1.1/"
   xmlns:cc="http://creativecommons.org/ns#"
   xmlns:rdf="http://www.w3.org/1999/02/22-rdf-syntax-ns#"
   xmlns:svg="http://www.w3.org/2000/svg"
   xmlns="http://www.w3.org/2000/svg"
   xmlns:sodipodi="http://sodipodi.sourceforge.net/DTD/sodipodi-0.dtd"
   xmlns:inkscape="http://www.inkscape.org/namespaces/inkscape"
   version="1.1"
   id="Layer_1"
   x="0px"
   y="0px"
   viewBox="-233 387.9 129 67"
   style="enable-background:new -233 387.9 129 67;"
   xml:space="preserve"
   sodipodi:docname="Logo.svg"
   inkscape:version="0.92.1 r15371"><metadata
     id="metadata17"><rdf:RDF><cc:Work
         rdf:about=""><dc:format>image/svg+xml</dc:format><dc:type
           rdf:resource="http://purl.org/dc/dcmitype/StillImage" /></cc:Work></rdf:RDF></metadata><defs
     id="defs15"><inkscape:perspective
       sodipodi:type="inkscape:persp3d"
       inkscape:vp_x="0 : 33.5 : 1"
       inkscape:vp_y="0 : 1000 : 0"
       inkscape:vp_z="129 : 33.5 : 1"
       inkscape:persp3d-origin="64.5 : 22.333333 : 1"
       id="perspective3692" /></defs><sodipodi:namedview
     pagecolor="#ffffff"
     bordercolor="#666666"
     borderopacity="1"
     objecttolerance="10"
     gridtolerance="10"
     guidetolerance="10"
     inkscape:pageopacity="0"
     inkscape:pageshadow="2"
     inkscape:window-width="1920"
     inkscape:window-height="1027"
     id="namedview13"
     showgrid="false"
     showguides="true"
     inkscape:guide-bbox="true"
     inkscape:zoom="2.2015504"
     inkscape:cx="-5.2235916"
     inkscape:cy="33.5"
     inkscape:window-x="-8"
     inkscape:window-y="-8"
     inkscape:window-maximized="1"
     inkscape:current-layer="Layer_1"><sodipodi:guide
       position="128.54577,98.566901"
       orientation="1,0"
       id="guide21"
       inkscape:locked="false" /><sodipodi:guide
       position="-0.45422535,-27.707746"
       orientation="1,0"
       id="guide23"
       inkscape:locked="false" /></sodipodi:namedview><style
     type="text/css"
     id="style2">
	.st0{fill:#009688;}
	.st1{fill:#010202;}
</style><g
     id="XMLID_2_"
     transform="translate(-3.7288742,-1.6457367)"><path
       id="XMLID_3_"
       class="st0"
       d="m -207.9,433.9 c -0.9,0.5 -1.9,0.8 -2.8,0.8 -1.3,0 -2.4,-0.3 -3.2,-1 -0.8,-0.7 -1.2,-1.6 -1.2,-2.8 0,-2.2 1.3,-3.5 4,-4 l 4.8,-0.8 v -1 c 0,-2.8 -0.9,-4.1 -2.8,-4.1 -0.5,0 -1,0.1 -1.5,0.2 -0.5,0.1 -1,0.3 -1.3,0.4 l -0.2,1.3 v 1.2 l -1.7,0.1 -0.3,-4.1 c 1.8,-0.5 3.6,-0.7 5.4,-0.7 1.8,0 3,0.5 3.8,1.5 0.8,1 1.1,2.6 1.1,4.9 v 3.7 c 0,0.6 0,1.3 0.1,1.9 0.1,0.6 0.1,1.1 0.2,1.3 l 2.1,0.2 -0.2,1.8 c -0.2,0 -0.6,0 -1.3,-0.1 -0.7,-0.1 -1.6,-0.1 -2.6,-0.1 l -0.4,-2.4 c -0.5,0.6 -1.2,1.3 -2,1.8 z m -4,-4.9 c -0.3,0.4 -0.5,0.8 -0.5,1.3 0,0.8 0.2,1.3 0.6,1.8 0.4,0.5 0.9,0.6 1.6,0.6 1,0 1.9,-0.3 2.6,-1 0.7,-0.7 1.2,-1.4 1.4,-2.4 v -1.8 l -4.3,0.8 c -0.6,0.1 -1.1,0.4 -1.4,0.7 z"
       inkscape:connector-curvature="0"
       style="fill:#009688" /><path
       id="XMLID_6_"
       class="st1"
       d="m -194.4,416.5 c 0,0.6 -0.1,1.2 -0.1,1.8 v 11 c 0,0.5 0,1.1 0.1,1.8 0.1,0.7 0.1,1.2 0.1,1.5 h 3.5 c 0.8,0 1.6,-0.1 2.6,-0.3 0.4,-0.6 0.6,-0.9 0.6,-1.1 0.2,-0.9 0.4,-1.6 0.5,-2 l 1.6,0.1 -0.5,4.5 -0.6,0.5 c -0.3,0 -0.8,0 -1.6,-0.1 -0.8,-0.1 -1.4,0 -1.9,0 h -6.3 c -0.5,0 -1.2,0 -1.9,0.1 -0.7,0.1 -1.3,0.1 -1.6,0.1 l -0.1,-1.5 2.4,-0.5 c 0.2,-1.2 0.3,-1.9 0.3,-2.3 v -12.8 c 0,-0.4 -0.1,-1.1 -0.3,-2.3 l -2.3,-0.4 0.1,-1.6 c 0.3,0 0.8,0 1.6,0.1 0.8,0.1 1.4,0.1 1.9,0.1 1,0 1.9,0 2.7,-0.1 0.8,-0.1 1.3,-0.1 1.5,-0.1 l 0.1,1.8 -2.3,0.2 c -0.1,0.4 -0.1,0.8 -0.1,1.5 z"
       inkscape:connector-curvature="0"
       style="fill:#010202" /><path
       id="XMLID_8_"
       class="st1"
       d="m -178.1,434.4 c -0.7,0 -1.6,-0.1 -2.6,-0.1 -0.5,0 -1.1,0 -1.8,0.1 -0.7,0.1 -1.2,0.1 -1.5,0.1 l -0.1,-1.5 2.3,-0.5 c 0,-0.2 0.1,-0.5 0.2,-1.1 0.1,-0.6 0.1,-0.9 0.1,-1.2 v -6.5 c 0,-0.2 0,-0.6 -0.1,-1.2 -0.1,-0.6 -0.1,-0.9 -0.2,-1.1 l -2.3,-0.5 0.1,-1.6 c 0.2,0 0.6,0 1.2,0.1 0.6,0.1 1.1,0 1.5,0 h 1.7 l 0.6,0.5 c 0,0.3 -0.1,1 -0.1,2.1 0,1.1 -0.1,1.9 -0.1,2.5 v 4.7 c 0,0.6 0,1.3 0.1,1.9 0.1,0.6 0.1,1.1 0.1,1.3 l 2.3,0.2 -0.2,1.8 c 0,0.1 -0.5,0 -1.2,0 z m -1,-21.1 c 0.3,0.3 0.5,0.8 0.5,1.5 0,0.6 -0.2,1 -0.5,1.4 -0.3,0.4 -0.7,0.5 -1.3,0.5 -0.6,0 -1,-0.2 -1.3,-0.5 -0.3,-0.3 -0.5,-0.8 -0.5,-1.4 0,-0.6 0.2,-1 0.5,-1.4 0.3,-0.4 0.7,-0.5 1.3,-0.5 0.5,-0.2 1,0 1.3,0.4 z"
       inkscape:connector-curvature="0"
       style="fill:#010202" /><path
       id="XMLID_11_"
       class="st1"
       d="m -158.6,434.5 c -0.2,0 -0.6,0 -1.3,-0.1 -0.7,-0.1 -1.6,-0.1 -2.5,-0.1 -0.5,0 -1,0 -1.7,0.1 -0.7,0.1 -1.1,0.1 -1.4,0.1 l -0.1,-1.5 2,-0.5 c 0.2,-0.9 0.3,-1.6 0.3,-2.3 V 426 c 0,-3.3 -1,-5 -3.1,-5 -1.2,0 -2.1,0.5 -2.8,1.4 -0.7,0.9 -1,2.1 -1.1,3.6 v 3.2 c 0,0.6 0,1.3 0.1,1.9 0.1,0.6 0.1,1.1 0.1,1.3 l 2.3,0.2 -0.2,1.8 c -0.2,0 -0.6,0 -1.3,-0.1 -0.7,-0.1 -1.6,-0.1 -2.5,-0.1 -0.5,0 -1.1,0 -1.8,0.1 -0.7,0.1 -1.2,0.1 -1.5,0.1 l -0.1,-1.5 2.3,-0.5 c 0,-0.2 0.1,-0.4 0.1,-0.9 0,-0.5 0.1,-0.8 0.2,-1.3 v -6.6 c 0,-0.3 0,-0.7 -0.1,-1.2 -0.1,-0.5 -0.1,-0.9 -0.2,-1.1 l -2.3,-0.5 0.1,-1.6 c 0.2,0 0.7,0 1.2,0.1 0.5,0.1 1.1,0 1.5,0 h 1.1 l 0.6,0.5 0.2,1.9 c 0.4,-0.8 1,-1.4 1.8,-1.9 0.8,-0.5 1.7,-0.8 2.8,-0.8 1.9,0 3.3,0.6 4,1.7 0.7,1.1 1.1,2.8 1.1,5.1 v 3.3 c 0,0.6 0,1.3 0.1,1.9 0.1,0.6 0.1,1.1 0.1,1.3 l 2.3,0.2 z"
       inkscape:connector-curvature="0"
       style="fill:#010202" /><path
       id="XMLID_13_"
       class="st1"
       d="m -156.1,411.6 c 0.6,0 1.1,0 1.5,0 h 1.7 l 0.6,0.5 c -0.1,0.6 -0.1,1.3 -0.1,2.2 0,0.9 -0.1,1.7 -0.1,2.3 v 12.7 c 0,0.6 0,1.2 0.1,1.8 0.1,0.6 0.1,1.1 0.1,1.4 l 2.3,0.2 -0.2,1.8 c -0.2,0 -0.6,0 -1.3,-0.1 -0.7,-0.1 -1.6,-0.1 -2.6,-0.1 -0.5,0 -1.1,0 -1.8,0.1 -0.7,0.1 -1.2,0.1 -1.5,0.1 l -0.1,-1.5 2.3,-0.5 c 0.1,-0.3 0.1,-0.6 0.2,-1.1 0.1,-0.5 0.1,-0.9 0.1,-1.1 V 416 c 0,-0.3 0,-0.7 -0.1,-1.2 -0.1,-0.5 -0.1,-0.9 -0.2,-1.1 l -2.3,-0.5 0.1,-1.6 c 0.3,0 0.6,0 1.3,0 z m 8,7.8 c 0,0 0.3,0 0.8,0 0.5,0 1,0 1.5,0 1,0 1.8,0 2.5,-0.1 0.7,-0.1 1.1,-0.1 1.3,-0.1 l 0.1,1.7 -2.3,0.2 c -0.6,0.3 -1.1,0.6 -1.7,1 -0.6,0.4 -1,0.7 -1.2,1 l -2.4,2.6 4.1,4.5 c 0.1,0.1 0.7,0.6 1.7,1.3 l 1,0.7 1.9,0.2 -0.2,1.8 c -0.2,0 -0.6,0 -1.3,-0.1 -0.7,-0.1 -1.6,-0.1 -2.6,-0.1 l -3.1,0.1 -0.1,-1.5 1.7,-0.3 -1.5,-1.7 -4.2,-4.5 4.9,-5.2 -1.3,-0.2 0.2,-1.6 c 0.2,0.3 0.2,0.3 0.2,0.3 z"
       inkscape:connector-curvature="0"
       style="fill:#010202" /><path
       id="XMLID_16_"
       class="st1"
       d="m -131.6,432.4 c 0.7,-0.2 1.2,-0.4 1.7,-0.6 0.5,-0.2 0.7,-0.3 0.7,-0.4 l 0.8,1.4 c 0,0 -0.2,0.2 -0.7,0.5 -0.5,0.3 -1.1,0.6 -1.9,0.9 -0.8,0.3 -1.7,0.4 -2.7,0.4 -2.2,0 -3.9,-0.7 -5.1,-2.1 -1.2,-1.4 -1.8,-3.2 -1.8,-5.6 0,-2.3 0.6,-4.2 1.7,-5.6 1.1,-1.4 2.7,-2.1 4.9,-2.1 3.8,0 5.8,2.3 5.8,7 l -0.5,1 h -9 c 0.1,1.5 0.4,2.8 1.1,3.9 0.7,1.1 1.7,1.6 2.9,1.6 0.6,0 1.3,-0.1 2.1,-0.3 z m -5.3,-10.2 c -0.6,0.9 -0.9,2.1 -1,3.5 l 6.7,-0.5 v -0.6 c 0,-1.1 -0.3,-2 -0.8,-2.7 -0.5,-0.7 -1.3,-1.1 -2.3,-1.1 -1.1,0 -2,0.5 -2.6,1.4 z"
       inkscape:connector-curvature="0"
       style="fill:#010202" /><path
       id="XMLID_19_"
       class="st1"
       d="m -119.7,419.9 c 0.8,-0.4 1.7,-0.7 2.8,-0.7 0.5,0 0.9,0 1.3,0.1 0.4,0.1 0.6,0.1 0.7,0.2 l -0.3,5 -1.7,-0.1 v -1.6 c 0,-0.2 -0.1,-0.7 -0.4,-1.5 h -0.1 c -1.3,0 -2.3,0.4 -3,1.2 -0.7,0.8 -1,1.9 -1,3.3 v 3.5 c 0,0.6 0,1.3 0.1,1.9 0.1,0.6 0.1,1.1 0.1,1.3 l 2.9,0.2 -0.2,1.8 c -0.2,0 -0.8,0 -1.7,-0.1 -0.9,-0.1 -1.8,-0.1 -2.8,-0.1 -0.5,0 -1.1,0 -1.8,0.1 -0.7,0.1 -1.2,0.1 -1.5,0.1 l -0.1,-1.5 2.3,-0.5 c 0,-0.2 0.1,-0.5 0.2,-1.1 0.1,-0.6 0.1,-0.9 0.1,-1.2 v -6.5 c 0,-0.2 0,-0.6 -0.1,-1.2 -0.1,-0.6 -0.1,-0.9 -0.2,-1.1 l -2.3,-0.5 0.1,-1.6 c 0.2,0 0.6,0 1.2,0.1 0.6,0.1 1.1,0 1.5,0 h 1.1 l 0.6,0.5 0.2,2 c 0.5,-0.8 1.3,-1.5 2,-2 z"
       inkscape:connector-curvature="0"
       style="fill:#010202" /></g></svg>