<?xml version="1.0" encoding="utf-8"?>
<!-- Generator: Adobe Illustrator 19.0.0, SVG Export Plug-In . SVG Version: 6.00 Build 0)  -->
<svg version="1.1" id="Layer_1" xmlns="http://www.w3.org/2000/svg" xmlns:xlink="http://www.w3.org/1999/xlink" x="0px" y="0px"
	 viewBox="-233 387.9 129 67" style="enable-background:new -233 387.9 129 67;" xml:space="preserve">
<style type="text/css">
	.st0{fill:#009688;}
	.st1{fill:#010202;}
</style>
<g id="XMLID_2_">
	<path id="XMLID_3_" class="st0" d="M-207.9,433.9c-0.9,0.5-1.9,0.8-2.8,0.8c-1.3,0-2.4-0.3-3.2-1c-0.8-0.7-1.2-1.6-1.2-2.8
		c0-2.2,1.3-3.5,4-4l4.8-0.8v-1c0-2.8-0.9-4.1-2.8-4.1c-0.5,0-1,0.1-1.5,0.2s-1,0.3-1.3,0.4l-0.2,1.3v1.2l-1.7,0.1l-0.3-4.1
		c1.8-0.5,3.6-0.7,5.4-0.7s3,0.5,3.8,1.5c0.8,1,1.1,2.6,1.1,4.9v3.7c0,0.6,0,1.3,0.1,1.9s0.1,1.1,0.2,1.3l2.1,0.2l-0.2,1.8
		c-0.2,0-0.6,0-1.3-0.1c-0.7-0.1-1.6-0.1-2.6-0.1l-0.4-2.4C-206.4,432.7-207.1,433.4-207.9,433.9z M-211.9,429
		c-0.3,0.4-0.5,0.8-0.5,1.3c0,0.8,0.2,1.3,0.6,1.8c0.4,0.5,0.9,0.6,1.6,0.6c1,0,1.9-0.3,2.6-1s1.2-1.4,1.4-2.4v-1.8l-4.3,0.8
		C-211.1,428.4-211.6,428.7-211.9,429z"/>
	<path id="XMLID_6_" class="st1" d="M-194.4,416.5c0,0.6-0.1,1.2-0.1,1.8v11c0,0.5,0,1.1,0.1,1.8c0.1,0.7,0.1,1.2,0.1,1.5h3.5
		c0.8,0,1.6-0.1,2.6-0.3c0.4-0.6,0.6-0.9,0.6-1.1c0.2-0.9,0.4-1.6,0.5-2l1.6,0.1l-0.5,4.5l-0.6,0.5c-0.3,0-0.8,0-1.6-0.1
		c-0.8-0.1-1.4,0-1.9,0h-6.3c-0.5,0-1.2,0-1.9,0.1c-0.7,0.1-1.3,0.1-1.6,0.1l-0.1-1.5l2.4-0.5c0.2-1.2,0.3-1.9,0.3-2.3v-12.8
		c0-0.4-0.1-1.1-0.3-2.3l-2.3-0.4l0.1-1.6c0.3,0,0.8,0,1.6,0.1c0.8,0.1,1.4,0.1,1.9,0.1c1,0,1.9,0,2.7-0.1c0.8-0.1,1.3-0.1,1.5-0.1
		l0.1,1.8l-2.3,0.2C-194.4,415.4-194.4,415.8-194.4,416.5z"/>
	<path id="XMLID_8_" class="st1" d="M-178.1,434.4c-0.7,0-1.6-0.1-2.6-0.1c-0.5,0-1.1,0-1.8,0.1c-0.7,0.1-1.2,0.1-1.5,0.1l-0.1-1.5
		l2.3-0.5c0-0.2,0.1-0.5,0.2-1.1c0.1-0.6,0.1-0.9,0.1-1.2v-6.5c0-0.2,0-0.6-0.1-1.2s-0.1-0.9-0.2-1.1l-2.3-0.5l0.1-1.6
		c0.2,0,0.6,0,1.2,0.1c0.6,0.1,1.1,0,1.5,0h1.7l0.6,0.5c0,0.3-0.1,1-0.1,2.1s-0.1,1.9-0.1,2.5v4.7c0,0.6,0,1.3,0.1,1.9
		s0.1,1.1,0.1,1.3l2.3,0.2l-0.2,1.8C-176.9,434.5-177.4,434.4-178.1,434.4z M-179.1,413.3c0.3,0.3,0.5,0.8,0.5,1.5
		c0,0.6-0.2,1-0.5,1.4c-0.3,0.4-0.7,0.5-1.3,0.5s-1-0.2-1.3-0.5c-0.3-0.3-0.5-0.8-0.5-1.4s0.2-1,0.5-1.4c0.3-0.4,0.7-0.5,1.3-0.5
		C-179.9,412.7-179.4,412.9-179.1,413.3z"/>
	<path id="XMLID_11_" class="st1" d="M-158.6,434.5c-0.2,0-0.6,0-1.3-0.1c-0.7-0.1-1.6-0.1-2.5-0.1c-0.5,0-1,0-1.7,0.1
		c-0.7,0.1-1.1,0.1-1.4,0.1l-0.1-1.5l2-0.5c0.2-0.9,0.3-1.6,0.3-2.3V426c0-3.3-1-5-3.1-5c-1.2,0-2.1,0.5-2.8,1.4
		c-0.7,0.9-1,2.1-1.1,3.6v3.2c0,0.6,0,1.3,0.1,1.9s0.1,1.1,0.1,1.3l2.3,0.2l-0.2,1.8c-0.2,0-0.6,0-1.3-0.1c-0.7-0.1-1.6-0.1-2.5-0.1
		c-0.5,0-1.1,0-1.8,0.1c-0.7,0.1-1.2,0.1-1.5,0.1l-0.1-1.5l2.3-0.5c0-0.2,0.1-0.4,0.1-0.9s0.1-0.8,0.2-1.3v-6.6c0-0.3,0-0.7-0.1-1.2
		s-0.1-0.9-0.2-1.1l-2.3-0.5l0.1-1.6c0.2,0,0.7,0,1.2,0.1s1.1,0,1.5,0h1.1l0.6,0.5l0.2,1.9c0.4-0.8,1-1.4,1.8-1.9
		c0.8-0.5,1.7-0.8,2.8-0.8c1.9,0,3.3,0.6,4,1.7c0.7,1.1,1.1,2.8,1.1,5.1v3.3c0,0.6,0,1.3,0.1,1.9s0.1,1.1,0.1,1.3l2.3,0.2
		L-158.6,434.5z"/>
	<path id="XMLID_13_" class="st1" d="M-156.1,411.6c0.6,0,1.1,0,1.5,0h1.7l0.6,0.5c-0.1,0.6-0.1,1.3-0.1,2.2s-0.1,1.7-0.1,2.3v12.7
		c0,0.6,0,1.2,0.1,1.8c0.1,0.6,0.1,1.1,0.1,1.4l2.3,0.2l-0.2,1.8c-0.2,0-0.6,0-1.3-0.1c-0.7-0.1-1.6-0.1-2.6-0.1
		c-0.5,0-1.1,0-1.8,0.1c-0.7,0.1-1.2,0.1-1.5,0.1l-0.1-1.5l2.3-0.5c0.1-0.3,0.1-0.6,0.2-1.1c0.1-0.5,0.1-0.9,0.1-1.1V416
		c0-0.3,0-0.7-0.1-1.2s-0.1-0.9-0.2-1.1l-2.3-0.5l0.1-1.6C-157.1,411.6-156.8,411.6-156.1,411.6z M-148.1,419.4c0,0,0.3,0,0.8,0
		s1,0,1.5,0c1,0,1.8,0,2.5-0.1c0.7-0.1,1.1-0.1,1.3-0.1l0.1,1.7l-2.3,0.2c-0.6,0.3-1.1,0.6-1.7,1c-0.6,0.4-1,0.7-1.2,1l-2.4,2.6
		l4.1,4.5c0.1,0.1,0.7,0.6,1.7,1.3l1,0.7l1.9,0.2l-0.2,1.8c-0.2,0-0.6,0-1.3-0.1c-0.7-0.1-1.6-0.1-2.6-0.1l-3.1,0.1l-0.1-1.5
		l1.7-0.3l-1.5-1.7l-4.2-4.5l4.9-5.2l-1.3-0.2l0.2-1.6C-148.1,419.4-148.1,419.4-148.1,419.4z"/>
	<path id="XMLID_16_" class="st1" d="M-131.6,432.4c0.7-0.2,1.2-0.4,1.7-0.6s0.7-0.3,0.7-0.4l0.8,1.4c0,0-0.2,0.2-0.7,0.5
		s-1.1,0.6-1.9,0.9s-1.7,0.4-2.7,0.4c-2.2,0-3.9-0.7-5.1-2.1s-1.8-3.2-1.8-5.6c0-2.3,0.6-4.2,1.7-5.6c1.1-1.4,2.7-2.1,4.9-2.1
		c3.8,0,5.8,2.3,5.8,7l-0.5,1h-9c0.1,1.5,0.4,2.8,1.1,3.9c0.7,1.1,1.7,1.6,2.9,1.6C-133.1,432.7-132.4,432.6-131.6,432.4z
		 M-136.9,422.2c-0.6,0.9-0.9,2.1-1,3.5l6.7-0.5v-0.6c0-1.1-0.3-2-0.8-2.7s-1.3-1.1-2.3-1.1C-135.4,420.8-136.3,421.3-136.9,422.2z"
		/>
	<path id="XMLID_19_" class="st1" d="M-119.7,419.9c0.8-0.4,1.7-0.7,2.8-0.7c0.5,0,0.9,0,1.3,0.1s0.6,0.1,0.7,0.2l-0.3,5l-1.7-0.1
		v-1.6c0-0.2-0.1-0.7-0.4-1.5h-0.1c-1.3,0-2.3,0.4-3,1.2c-0.7,0.8-1,1.9-1,3.3v3.5c0,0.6,0,1.3,0.1,1.9s0.1,1.1,0.1,1.3l2.9,0.2
		l-0.2,1.8c-0.2,0-0.8,0-1.7-0.1c-0.9-0.1-1.8-0.1-2.8-0.1c-0.5,0-1.1,0-1.8,0.1s-1.2,0.1-1.5,0.1l-0.1-1.5l2.3-0.5
		c0-0.2,0.1-0.5,0.2-1.1s0.1-0.9,0.1-1.2v-6.5c0-0.2,0-0.6-0.1-1.2s-0.1-0.9-0.2-1.1l-2.3-0.5l0.1-1.6c0.2,0,0.6,0,1.2,0.1
		c0.6,0.1,1.1,0,1.5,0h1.1l0.6,0.5l0.2,2C-121.2,421.1-120.4,420.4-119.7,419.9z"/>
</g>
</svg>
